<?xml version="1.0" encoding="utf-8"?>
<!-- Generator: Adobe Illustrator 21.1.0, SVG Export Plug-In . SVG Version: 6.00 Build 0)  -->
<svg version="1.1" id="Layer_1" xmlns="http://www.w3.org/2000/svg" xmlns:xlink="http://www.w3.org/1999/xlink" x="0px" y="0px"
	 viewBox="0 0 267.7 201.8" style="enable-background:new 0 0 267.7 201.8;" xml:space="preserve">
<style type="text/css">
	.st0{fill:#f4f4f4;}
</style>
<g>
	<g>
		<polygon class="st0" points="99.8,84.9 98.5,92.3 98.3,93.1 115.5,93.1 115.7,92.3 117,84.9 117.1,84.2 99.9,84.2 		"/>
		<polygon class="st0" points="100.7,79.9 100.2,82.7 100.1,82.9 117.3,82.9 117.4,82.7 117.9,79.9 117.9,79.6 100.7,79.6 		"/>
		<polygon class="st0" points="86.5,83.4 89.7,78.1 90.5,76.9 102.2,57.9 106.3,34.9 106.5,33.6 93.4,37.5 85.5,82.1 85.1,84.9 
			84.9,85.9 84.9,85.9 84.9,85.9 		"/>
		<polygon class="st0" points="109.8,46.8 108.2,36.7 107.7,33.2 104.9,48.9 103.7,56 105.2,53.7 		"/>
		<polygon class="st0" points="91.7,76.9 91,78.1 90.2,79.4 86.3,85.6 86,86.2 85.6,86.8 84.8,88 84.4,88.8 86.6,90.4 90,92.8 
			90.2,92.9 90.4,93.1 97.2,93.1 97.2,92.9 97.4,91.7 99.6,79.4 99.8,78.1 100,76.9 103.3,58.1 101.7,60.7 		"/>
		<polygon class="st0" points="128.1,34.9 124,58.1 129.1,76.9 129.4,78.1 130.8,83.4 131.5,85.9 131.8,84.5 132.3,81.7 140.1,37.5 
			128.3,33.6 		"/>
		<polygon class="st0" points="127.3,33.2 125.5,36.6 120.3,46.8 122.5,53.9 123.2,56.2 124.5,48.9 		"/>
		<polygon class="st0" points="130.5,86.9 130.3,86.2 130.2,85.7 128.5,79.4 128.1,78.1 127.8,76.9 123.5,60.9 122.8,58.4 
			119.6,76.9 119.4,78.1 119.1,79.4 117,91.7 116.7,92.9 116.7,93.1 123.5,93.1 123.7,92.9 124.4,92.6 128.6,90.2 131,88.8 
			130.8,88.1 		"/>
	</g>
	<g>
		<polygon class="st0" points="179.4,40.8 194.1,35.6 172.7,35.6 179.7,39.2 		"/>
		<polygon class="st0" points="148.3,35.6 160.5,40.9 160.8,39.2 168.9,35.6 		"/>
		<polygon class="st0" points="151.8,52.1 158.8,50 158.9,49.5 149.6,49.5 		"/>
		<polygon class="st0" points="179.2,41.6 178,48.8 191,48.8 196.7,42.3 194.7,36.1 		"/>
		<polygon class="st0" points="177.7,50.1 184.5,52.1 187.7,49.5 177.8,49.5 		"/>
		<polygon class="st0" points="143.3,42.3 143.3,42.4 143.5,43.2 145.4,48.8 147.9,48.8 148.4,48.8 149,48.8 159.1,48.8 160.3,41.7 
			147.5,36.1 		"/>
		<polygon class="st0" points="161.5,41.4 161.4,41.8 161.3,42.3 160.2,48.8 160.1,49.2 160.1,49.5 160,49.8 159.9,50.3 152.6,92 
			159.8,95.7 160.1,94.4 168,49.5 168,49.2 168.1,48.8 168.5,46.4 168.6,46.1 168.6,46 168.7,45.7 168.7,45.6 168.7,45.3 
			170.1,37.4 170.3,36.2 161.8,39.9 		"/>
		<polygon class="st0" points="170.9,37.4 169.5,45.2 169.4,45.6 169.4,45.6 169.3,46.1 169.3,46.1 169.3,46.5 168.9,48.8 
			168.8,49.2 168.7,49.5 160.8,94.5 160.6,95.7 169.2,92 176.6,50.4 176.6,49.9 176.7,49.5 176.8,49.2 176.8,48.8 178,42.2 
			178.1,41.8 178.1,41.4 178.4,39.9 171.1,36.1 		"/>
	</g>
	<g>
		<polygon class="st0" points="28.2,171.2 36.4,167.4 38.4,156.1 		"/>
		<polygon class="st0" points="39.1,152.5 46.1,112.5 38.1,108.1 37.9,109.5 30.3,152.5 37.9,152.5 		"/>
		<polygon class="st0" points="19.5,159.7 21.1,157.4 24.4,152.5 29.5,152.5 37.1,109.5 37.4,108.1 27.8,112.5 		"/>
		<polygon class="st0" points="65.9,156.1 63.9,167.4 70.3,170.9 		"/>
		<polygon class="st0" points="83.6,109.5 76,152.5 80.7,152.5 82.6,158.3 83.4,160.7 91.8,112.5 83.9,108.1 		"/>
		<polygon class="st0" points="66.5,152.5 67.7,152.5 75.3,152.5 82.8,109.5 83.1,108.1 73.6,112.5 		"/>
		<polygon class="st0" points="26.3,172 26.3,172 26.3,172 		"/>
		<polygon class="st0" points="30.1,153.7 29.9,154.9 27.5,168.4 27.2,170.5 27.1,170.9 27.5,170.3 38.9,153.7 		"/>
		<polygon class="st0" points="20.6,160 19,162.4 18.7,162.8 26.1,171.8 26.2,171.6 26.5,169.9 26.5,169.8 29.1,154.9 29.3,153.7 
			24.9,153.7 		"/>
		<polygon class="st0" points="79.8,153.7 75.8,153.7 75.6,154.9 73,169.7 73,169.9 72.7,171.3 82.7,162.8 82.1,160.9 		"/>
		<polygon class="st0" points="66.3,153.7 71.9,171.7 74.8,154.9 75.1,153.7 		"/>
		<path class="st0" d="M64.7,153.7l-8-23.3l-16.5,23.3l-2.3,13.2l13.4-6.6l11.1,6.6L64.7,153.7z M53.8,146.3l2.1,7.3h0l-4,3.2
			l-2.8-3.2L53.8,146.3z"/>
	</g>
	<g>
		<polygon class="st0" points="183.9,109.5 173,171.3 172.8,172.6 182.4,168.2 192.2,112.6 184.1,108.1 		"/>
		<polygon class="st0" points="163.9,168.2 172,172.6 172.2,171.3 183.1,109.5 183.3,108.1 173.7,112.6 		"/>
		<polygon class="st0" points="218.3,112.6 208.5,168.2 208.5,168.2 216.6,172.6 216.8,171.3 227.7,109.5 228,108.1 218.3,112.6 		
			"/>
		<polygon class="st0" points="228.8,108.1 228.5,109.5 217.6,171.3 217.4,172.6 227,168.2 236.8,112.6 		"/>
		<polygon class="st0" points="191.4,125.6 207.4,166.9 209.3,155.7 193.4,113.4 		"/>
		<polygon class="st0" points="200.3,129.3 209.7,153.6 210.9,147 201.5,122 		"/>
		<polygon class="st0" points="190,133.3 197.8,153.6 198.8,148.1 191,127.3 		"/>
	</g>
	<g>
		<polygon class="st0" points="53.2,67.9 52.3,73.1 52.1,74.2 70,74.2 74.2,67.9 72.9,67.9 		"/>
		<polygon class="st0" points="72.4,61 54.5,61 54.3,62.1 53.4,67.2 73,67.2 74.3,67.2 		"/>
		<polygon class="st0" points="73.9,47.9 79.3,53 83,47.9 		"/>
		<polygon class="st0" points="86.8,40.4 86.8,40.4 78.1,34.4 65.1,34.4 59.7,37.8 58.5,38.5 58.4,38.5 58.2,39.8 57.2,45.6 
			57,46.8 73.5,46.8 83.8,46.8 83.8,46.8 87.7,41 87.7,41 		"/>
		<polygon class="st0" points="71.9,29.2 66.6,32.5 64.7,33.6 78.3,33.6 76.7,32.5 		"/>
		<polygon class="st0" points="86.2,33.2 78.6,33.2 80.2,34.4 86.7,38.9 88.4,40 88.4,40 88.4,40 		"/>
		<polygon class="st0" points="52,34.4 50.1,33.4 50,33.8 49.9,34.4 49.9,34.7 49.8,35.1 48.5,42.2 48.3,43.6 48.1,45 47.9,45.6 
			47.7,46.8 47.5,47.9 46.1,55.9 45.9,57.1 45.7,58.2 43.8,69.1 43.6,70.3 43.4,71.4 39.3,94.6 39.1,95.8 47.9,92.1 51.5,71.4 
			51.7,70.3 51.9,69.1 53.8,58.2 54,57.1 54.2,55.9 55.6,47.9 55.8,46.8 56,45.6 57.2,39.3 57.2,39.2 57.4,37.9 57.4,37.9 
			57.5,37.1 57.1,36.9 		"/>
		<polygon class="st0" points="48.1,34 44.9,35.3 44.9,35.3 40.6,37.1 40.3,39.2 40,40.9 36.1,62.8 35.8,64.5 31,92.1 38.3,95.8 
			38.6,94.5 42.6,71.4 42.8,70.3 43,69.1 45,58.2 45.2,57.1 45.4,55.9 46.8,47.9 47,46.8 47.2,45.6 47.2,45.5 47.4,44.1 47.7,42.7 
			49.1,34.7 49.1,34.7 49.2,34.4 49.3,33.4 49.3,33.4 49.3,33.4 		"/>
		<polygon class="st0" points="52.4,33.6 54.6,34.7 58.1,36.5 58.3,36.6 59.2,37 62.9,34.7 64.7,33.6 		"/>
	</g>
	<path class="st0" d="M139.4,103.4"/>
	<g>
		<polygon class="st0" points="145.6,135.3 142.3,136.9 136.7,168.2 144.7,172.6 144.9,171.3 150.4,140.3 146.4,136.2 		"/>
		<polygon class="st0" points="151.1,141 145.7,171.3 145.5,172.6 155,168.2 158.5,148.6 157.5,147.6 		"/>
		<polygon class="st0" points="111.8,136.2 105.2,141.3 99.9,171.3 99.7,172.6 109.3,168.2 114.8,136.9 112.9,135.4 		"/>
		<polygon class="st0" points="94.2,149.9 91,168.2 98.9,172.6 99.2,171.3 104.3,142 95.6,148.8 		"/>
		<polygon class="st0" points="116.9,137.6 114.5,151.4 117.1,154.2 124.1,161.8 133.6,154.2 137.5,150.9 139.9,137.8 126.5,148.3 
					"/>
		<polygon class="st0" points="114,153.9 114.3,152.5 123.9,163 137.2,152.6 137,154.1 123.6,164.6 		"/>
		<polygon class="st0" points="98,129.7 95.3,144.3 132.5,115.3 159.4,143.1 161.9,128.5 161.9,128.5 135,99.6 		"/>
		<polygon class="st0" points="95.2,146 94.6,148.2 131.8,119.3 158.7,147 159,144.8 159,144.8 132.2,116.7 		"/>
		<path class="st0" d="M150.6,118.7"/>
	</g>
	<g>
		<polygon class="st0" points="195.4,83.4 198.6,78.1 199.4,76.9 211.1,57.9 215.2,34.9 215.4,33.6 202.3,37.5 194.4,82.1 194,84.9 
			193.8,85.9 193.8,85.9 193.8,85.9 		"/>
		<polygon class="st0" points="218.7,46.8 217.1,36.7 216.6,33.2 213.8,48.9 212.6,56 214.1,53.7 		"/>
		<polygon class="st0" points="200.6,76.9 199.9,78.1 199.1,79.4 195.2,85.6 194.9,86.2 194.5,86.8 193.7,88 193.3,88.8 195.5,90.4 
			198.9,92.8 199.1,92.9 199.3,93.1 206.1,93.1 206.1,92.9 206.3,91.7 208.5,79.4 208.7,78.1 208.9,76.9 212.2,58.1 210.6,60.7 		
			"/>
		<polygon class="st0" points="237,34.9 232.9,58.1 238,76.9 238.3,78.1 239.7,83.4 240.4,85.9 240.7,84.5 241.2,81.7 249,37.5 
			237.2,33.6 		"/>
		<polygon class="st0" points="236.2,33.2 234.4,36.6 229.2,46.8 231.4,53.9 232.1,56.2 233.4,48.9 		"/>
		<polygon class="st0" points="239.4,86.9 239.2,86.2 239.1,85.7 237.4,79.4 237,78.1 236.7,76.9 232.4,60.9 231.7,58.4 228.5,76.9 
			228.3,78.1 228,79.4 225.9,91.7 225.6,92.9 225.6,93.1 232.4,93.1 232.6,92.9 233.3,92.6 237.5,90.2 239.9,88.8 239.7,88.1 		"/>
		<polygon class="st0" points="208.7,84.9 207.4,92.3 207.2,93.1 224.4,93.1 224.6,92.3 225.9,84.9 226,84.2 208.8,84.2 		"/>
		<polygon class="st0" points="209.6,79.9 209.1,82.7 209,82.9 226.2,82.9 226.3,82.7 226.8,79.9 226.8,79.6 209.6,79.6 		"/>
	</g>
</g>
</svg>
